solid Created by Gmsh
facet normal 0 0 -1
  outer loop
    vertex -0.06 -0.06 0.2872579001
    vertex -0.06 0.06 0.2872579001
    vertex 0 0 0.2872579001
  endloop
endfacet
facet normal 0 0 -1
  outer loop
    vertex 0.06 -0.06 0.2872579001
    vertex -0.06 -0.06 0.2872579001
    vertex 0 0 0.2872579001
  endloop
endfacet
facet normal 0 0 -1
  outer loop
    vertex -0.06 0.06 0.2872579001
    vertex 0.06 0.06 0.2872579001
    vertex 0 0 0.2872579001
  endloop
endfacet
facet normal 0 -0 -1
  outer loop
    vertex 0.06 0.06 0.2872579001
    vertex 0.06 -0.06 0.2872579001
    vertex 0 0 0.2872579001
  endloop
endfacet
endsolid Created by Gmsh
